<svg width="196" height="16" xmlns="http://www.w3.org/2000/svg" xmlns:svg="http://www.w3.org/2000/svg">
 <g class="layer">
  <title>Layer 1</title>
  <path clip-rule="evenodd" d="m88.331,1.2306l1.7808,4.4198l4.559,0.41071c0.3162,0.02864 0.4449,0.44236 0.2049,0.66015l-3.4581,3.14171l1.03619,4.67373c0.07191,0.3248 -0.26369,0.5803 -0.53529,0.4077l-3.91811,-2.4778l-3.918,2.4778c-0.2723,0.1718 -0.6072,-0.0836 -0.53529,-0.4077l1.03619,-4.67373l-3.4588,-3.14247c-0.24,-0.21779 -0.1121,-0.63151 0.2048,-0.66014l4.5591,-0.41071l1.7808,-4.41905c0.1236,-0.30747 0.5382,-0.30747 0.6618,0z" fill="#ef5350" fill-rule="evenodd" id="svg_1" stroke="#ef5350"/>
  <path clip-rule="evenodd" d="m8.33102,1.2306l1.78078,4.4198l4.559,0.41071c0.3162,0.02864 0.4449,0.44236 0.2049,0.66015l-3.4581,3.14171l1.0362,4.67373c0.0719,0.3248 -0.2637,0.5803 -0.5353,0.4077l-3.91805,-2.4778l-3.91801,2.4778c-0.27237,0.1718 -0.60725,-0.0836 -0.53539,-0.4077l1.03628,-4.67373l-3.4588,-3.14247c-0.24003,-0.21779 -0.11211,-0.63151 0.20481,-0.66014l4.55903,-0.41071l1.78079,-4.41905c0.1236,-0.30747 0.53826,-0.30747 0.66186,0z" fill="#ef5350" fill-rule="evenodd" id="svg_2" stroke="#ef5350"/>
  <path clip-rule="evenodd" d="m28.331,1.2306l1.7808,4.4198l4.559,0.41071c0.3162,0.02864 0.4449,0.44236 0.2049,0.66015l-3.4581,3.14171l1.0362,4.67373c0.0719,0.3248 -0.2637,0.5803 -0.5353,0.4077l-3.9181,-2.4778l-3.918,2.4778c-0.2723,0.1718 -0.6072,-0.0836 -0.5353,-0.4077l1.0362,-4.67373l-3.4588,-3.14247c-0.24,-0.21779 -0.1121,-0.63151 0.2048,-0.66014l4.5591,-0.41071l1.7808,-4.41905c0.1236,-0.30747 0.5382,-0.30747 0.6618,0z" fill="#ef5350" fill-rule="evenodd" id="svg_3" stroke="#ef5350"/>
  <path clip-rule="evenodd" d="m48.331,1.2306l1.7808,4.4198l4.559,0.41071c0.3162,0.02864 0.4449,0.44236 0.2049,0.66015l-3.4581,3.14171l1.0362,4.67373c0.0719,0.3248 -0.2637,0.5803 -0.5353,0.4077l-3.9181,-2.4778l-3.918,2.4778c-0.2723,0.1718 -0.6072,-0.0836 -0.5353,-0.4077l1.0362,-4.67373l-3.4588,-3.14247c-0.24,-0.21779 -0.1121,-0.63151 0.2048,-0.66014l4.5591,-0.41071l1.7808,-4.41905c0.1236,-0.30747 0.5382,-0.30747 0.6618,0z" fill="#ef5350" fill-rule="evenodd" id="svg_4" stroke="#ef5350"/>
  <path clip-rule="evenodd" d="m68.331,1.2306l1.7808,4.4198l4.559,0.41071c0.3162,0.02864 0.4449,0.44236 0.2049,0.66015l-3.4581,3.14171l1.03619,4.67373c0.07191,0.3248 -0.26369,0.5803 -0.53529,0.4077l-3.91811,-2.4778l-3.918,2.4778c-0.2723,0.1718 -0.6072,-0.0836 -0.5353,-0.4077l1.0362,-4.67373l-3.4588,-3.14247c-0.24,-0.21779 -0.1121,-0.63151 0.2048,-0.66014l4.5591,-0.41071l1.7808,-4.41905c0.1236,-0.30747 0.5382,-0.30747 0.6618,0z" fill="#ef5350" fill-rule="evenodd" id="svg_5" stroke="#ef5350"/>
  <path clip-rule="evenodd" d="m188.33099,1.2306l1.78101,4.4198l4.55901,0.41071c0.31599,0.02864 0.44499,0.44236 0.205,0.66015l-3.45801,3.14171l1.036,4.67373c0.07201,0.3248 -0.26399,0.5803 -0.536,0.4077l-3.918,-2.4778l-3.918,2.4778c-0.272,0.1718 -0.60699,-0.0836 -0.535,-0.4077l1.036,-4.67373l-3.45799,-3.14247c-0.24001,-0.21779 -0.11301,-0.63151 0.20399,-0.66014l4.55901,-0.41071l1.78101,-4.41905c0.12399,-0.30747 0.53799,-0.30747 0.66199,0z" fill="none" fill-rule="evenodd" id="svg_6" stroke="#ef5350"/>
  <path clip-rule="evenodd" d="m108.331,1.2306l1.781,4.4198l4.559,0.41071c0.316,0.02864 0.445,0.44236 0.205,0.66015l-3.458,3.14171l1.036,4.67373c0.072,0.3248 -0.264,0.5803 -0.536,0.4077l-3.918,-2.4778l-3.918,2.4778c-0.272,0.1718 -0.607,-0.0836 -0.535,-0.4077l1.036,-4.67373l-3.458,-3.14247c-0.24,-0.21779 -0.113,-0.63151 0.204,-0.66014l4.559,-0.41071l1.781,-4.41905c0.124,-0.30747 0.538,-0.30747 0.662,0z" fill="none" fill-rule="evenodd" id="svg_7" stroke="#ef5350"/>
  <path clip-rule="evenodd" d="m128.33099,1.2306l1.78101,4.4198l4.55901,0.41071c0.31599,0.02864 0.44499,0.44236 0.205,0.66015l-3.45801,3.14171l1.036,4.67373c0.07201,0.3248 -0.26399,0.5803 -0.536,0.4077l-3.918,-2.4778l-3.918,2.4778c-0.272,0.1718 -0.607,-0.0836 -0.535,-0.4077l1.036,-4.67373l-3.458,-3.14247c-0.24,-0.21779 -0.113,-0.63151 0.204,-0.66014l4.559,-0.41071l1.781,-4.41905c0.124,-0.30747 0.538,-0.30747 0.66199,0z" fill="none" fill-rule="evenodd" id="svg_8" stroke="#ef5350"/>
  <path clip-rule="evenodd" d="m148.33099,1.2306l1.78101,4.4198l4.55901,0.41071c0.31599,0.02864 0.44499,0.44236 0.205,0.66015l-3.45801,3.14171l1.036,4.67373c0.07201,0.3248 -0.26399,0.5803 -0.536,0.4077l-3.918,-2.4778l-3.918,2.4778c-0.272,0.1718 -0.60699,-0.0836 -0.535,-0.4077l1.036,-4.67373l-3.45799,-3.14247c-0.24001,-0.21779 -0.11301,-0.63151 0.20399,-0.66014l4.55901,-0.41071l1.78101,-4.41905c0.12399,-0.30747 0.53799,-0.30747 0.66199,0z" fill="none" fill-rule="evenodd" id="svg_9" stroke="#ef5350"/>
  <path clip-rule="evenodd" d="m168.33099,1.2306l1.78101,4.4198l4.55901,0.41071c0.31599,0.02864 0.44499,0.44236 0.205,0.66015l-3.45801,3.14171l1.036,4.67373c0.07201,0.3248 -0.26399,0.5803 -0.536,0.4077l-3.918,-2.4778l-3.918,2.4778c-0.272,0.1718 -0.60699,-0.0836 -0.535,-0.4077l1.036,-4.67373l-3.45799,-3.14247c-0.24001,-0.21779 -0.11301,-0.63151 0.20399,-0.66014l4.55901,-0.41071l1.78101,-4.41905c0.12399,-0.30747 0.53799,-0.30747 0.66199,0z" fill="none" fill-rule="evenodd" id="svg_10" stroke="#ef5350"/>
 </g>
</svg>